<?xml version="1.0" encoding="utf-8"?>
<!-- Generator: Adobe Illustrator 21.0.2, SVG Export Plug-In . SVG Version: 6.00 Build 0)  -->
<svg version="1.1" id="Capa_1" xmlns="http://www.w3.org/2000/svg" xmlns:xlink="http://www.w3.org/1999/xlink" x="0px" y="0px"
	 viewBox="0 0 40 40" style="enable-background:new 0 0 40 40;" xml:space="preserve">
<style type="text/css">
	.st0{display:none;}
	.st1{display:inline;fill:none;stroke:#0F6081;stroke-linecap:round;stroke-miterlimit:10;}
	.st2{display:inline;}
	.st3{fill:none;stroke:#0F6081;stroke-linecap:round;stroke-miterlimit:10;}
	.st4{fill:none;stroke:#0F6081;stroke-width:2;stroke-linecap:round;stroke-miterlimit:10;}
	.st5{fill:none;stroke:#0F6081;stroke-width:2;stroke-miterlimit:10;}
	.st6{display:inline;fill:none;stroke:#E75428;stroke-miterlimit:10;}
	.st7{display:inline;fill:none;stroke:#E75428;stroke-linecap:round;stroke-miterlimit:10;}
	.st8{display:inline;fill:none;stroke:#0F6081;stroke-miterlimit:10;}
	.st9{fill:#0F6081;}
	.st10{fill:#E75428;}
	.st11{fill:#F8F6F6;}
	.st12{fill:#FFFFFF;}
	.st13{fill:#FBFBFB;}
	.st14{display:inline;fill:none;stroke:#C2B59C;stroke-miterlimit:10;}
	.st15{fill:#C2B59C;}
</style>
<g class="st0">
	<circle class="st1" cx="71.1" cy="19.3" r="6.1"/>
	<path class="st1" d="M74.9,17.8"/>
	<g class="st2">
		<g>
			<line class="st3" x1="72.8" y1="16" x2="74.3" y2="17.8"/>
			<line class="st3" x1="72.5" y1="19.5" x2="74.4" y2="17.9"/>
		</g>
		<path class="st3" d="M73.9,17.8c0,0-5.8-1.6-5.5,4.4"/>
	</g>
</g>
<g>
	<polyline class="st4" points="9.3,21.9 17.3,28.5 30.7,14.1 	"/>
	<circle class="st5" cx="20" cy="20" r="18.8"/>
</g>
<g class="st0">
	<circle class="st6" cx="-9.9" cy="19.3" r="6.1"/>
	<line class="st7" x1="-12.7" y1="16.2" x2="-7.1" y2="22.4"/>
	<line class="st7" x1="-12.7" y1="22.4" x2="-7.1" y2="16.2"/>
</g>
<g class="st0">
	<circle class="st8" cx="30.5" cy="19.3" r="6.1"/>
	<g class="st2">
		<g id="XMLID_78_">
			<path class="st9" d="M33.1,16.1c0.2,0.1,0.3,0.4,0.1,0.6c-0.1,0.2-0.2,0.4-0.4,0.6c-0.6-0.4-1.1-0.7-1.7-1.1
				c0.1-0.2,0.2-0.4,0.4-0.6c0.1-0.1,0.2-0.2,0.4-0.2c0.1,0,0.2,0,0.2,0.1C32.5,15.7,32.8,15.9,33.1,16.1z"/>
			<path class="st9" d="M32.7,17.7c-0.9,1.4-1.8,2.9-2.7,4.3c-0.6-0.4-1.1-0.7-1.7-1c0.9-1.4,1.8-2.9,2.7-4.3
				C31.5,17,32.1,17.3,32.7,17.7z"/>
			<path class="st9" d="M28,21.4c0.5,0.3,1.1,0.7,1.6,1c-0.6,0.3-1.1,0.6-1.7,0.9C28,22.7,28,22,28,21.4z"/>
		</g>
	</g>
</g>
<g class="st0">
	<circle class="st6" cx="50.8" cy="19.3" r="6.1"/>
	<g class="st2">
		<g id="XMLID_77_">
			<g>
				<path class="st10" d="M53.3,16.6c0.4,0,0.6,0.3,0.6,0.7c0,0.1-0.1,0.2-0.2,0.2c0,0,0,0-0.1,0c-2,0-3.9,0-5.9,0
					c-0.2,0-0.3-0.1-0.3-0.3c0-0.3,0.3-0.6,0.6-0.6c0.5,0,1,0,1.4,0c0,0,0.1,0,0.1,0c0-0.1,0-0.2,0-0.3c0-0.3,0.2-0.5,0.5-0.5
					c0.3,0,0.7,0,1,0c0.3,0,0.5,0.2,0.5,0.5c0,0.1,0,0.2,0,0.3c0,0,0.1,0,0.1,0C52.4,16.6,52.9,16.6,53.3,16.6z M51.4,16.6
					c0-0.1,0-0.2,0-0.3c0-0.1-0.1-0.1-0.2-0.1c-0.3,0-0.6,0-1,0c-0.1,0-0.1,0-0.2,0.1c0,0.1,0,0.2,0,0.3
					C50.5,16.6,51,16.6,51.4,16.6z"/>
				<path class="st10" d="M53.5,17.7c0.1,0,0.2,0.2,0.2,0.3c0,0.2-0.1,0.3-0.3,0.3c0,0,0,0-0.1,0c0,0.2-0.1,0.4-0.1,0.6
					c-0.1,0.6-0.1,1.1-0.2,1.7c-0.1,0.5-0.1,1-0.2,1.6c0,0.2-0.1,0.5-0.1,0.7c0,0.2-0.1,0.2-0.3,0.3c0,0-0.1,0-0.1,0
					c-1.1,0-2.3,0-3.4,0c-0.2,0-0.3-0.1-0.4-0.3c-0.1-1-0.3-2-0.4-3c-0.1-0.5-0.1-1-0.2-1.5c0,0,0,0,0,0c0,0,0,0-0.1,0
					c-0.2,0-0.3-0.1-0.3-0.3c0-0.2,0.1-0.3,0.3-0.3c0.2,0,0.4,0,0.6,0c1.6,0,3.2,0,4.8,0C53.4,17.7,53.5,17.7,53.5,17.7z M52.2,20.8
					c0-0.4,0-0.7,0.1-1.1c0-0.1-0.1-0.2-0.2-0.2c-0.1,0-0.2,0.1-0.2,0.2c0,0.2,0,0.5,0,0.7c0,0.6-0.1,1.2-0.1,1.8
					c0,0.1,0.1,0.2,0.2,0.2c0.1,0,0.2-0.1,0.2-0.2c0-0.4,0-0.8,0.1-1.3c0,0,0,0,0,0C52.2,20.9,52.2,20.8,52.2,20.8z M50.9,22.2
					c0-0.4,0-0.8,0-1.2s0-0.8,0-1.2c0-0.2-0.1-0.2-0.2-0.2s-0.2,0.1-0.2,0.2c0,0.8,0,1.6,0,2.4c0,0,0,0.1,0,0.1
					c0,0.1,0.1,0.1,0.2,0.2C50.8,22.4,50.9,22.3,50.9,22.2C50.9,22.2,50.9,22.2,50.9,22.2z M49.5,22.4c0.1,0,0.2-0.1,0.2-0.2
					c0-0.4,0-0.8-0.1-1.2c0-0.1,0-0.1,0-0.2c0-0.4,0-0.7-0.1-1.1c0-0.1-0.1-0.2-0.2-0.2c-0.1,0-0.1,0.1-0.1,0.2c0,0.4,0,0.8,0.1,1.1
					c0,0.5,0,0.9,0.1,1.4C49.4,22.3,49.4,22.4,49.5,22.4z"/>
				<path class="st11" d="M52.2,19.7c0,0.4,0,0.7-0.1,1.1c0,0.1,0,0.1,0,0.2c0,0,0,0,0,0c0,0.4,0,0.8-0.1,1.3c0,0.1-0.1,0.2-0.2,0.2
					c-0.1,0-0.2-0.1-0.2-0.2c0-0.6,0.1-1.2,0.1-1.8c0-0.2,0-0.5,0-0.7c0-0.1,0.1-0.2,0.2-0.2C52.2,19.5,52.2,19.6,52.2,19.7z"/>
				<path class="st12" d="M51.4,16.3c0,0.1,0,0.2,0,0.3c-0.4,0-0.9,0-1.3,0c0-0.1,0-0.2,0-0.3c0-0.1,0.1-0.1,0.2-0.1
					c0.3,0,0.6,0,1,0C51.3,16.2,51.4,16.2,51.4,16.3z"/>
				<path class="st13" d="M50.9,20.9c0,0.4,0,0.8,0,1.2c0,0,0,0.1,0,0.1c0,0.1-0.1,0.1-0.2,0.1c-0.1,0-0.2-0.1-0.2-0.2
					c0,0,0-0.1,0-0.1c0-0.8,0-1.6,0-2.4c0-0.2,0.1-0.2,0.2-0.2s0.2,0.1,0.2,0.2C50.9,20.1,50.9,20.5,50.9,20.9z"/>
				<path class="st13" d="M49.7,22.2c0,0.1-0.1,0.2-0.2,0.2c-0.1,0-0.2-0.1-0.2-0.2c0-0.5,0-0.9-0.1-1.4c0-0.4,0-0.8-0.1-1.1
					c0-0.1,0-0.2,0.1-0.2c0.1,0,0.2,0,0.2,0.2c0,0.4,0,0.7,0.1,1.1c0,0.1,0,0.1,0,0.2C49.7,21.4,49.7,21.8,49.7,22.2z"/>
			</g>
			<g>
			</g>
		</g>
	</g>
</g>
<g class="st0">
	<circle class="st14" cx="10.3" cy="19.3" r="6.1"/>
	<g class="st2">
		<g>
			<path class="st15" d="M9.8,21.3c0-0.1,0-0.2,0-0.3c0-0.4,0.1-0.7,0.2-1c0.1-0.2,0.2-0.4,0.4-0.6c0.1-0.2,0.4-0.4,0.7-0.7
				c0.3-0.3,0.6-0.5,0.7-0.7c0.1-0.2,0.2-0.4,0.2-0.6c0-0.4-0.1-0.7-0.4-1c-0.3-0.3-0.7-0.4-1.1-0.4c-0.4,0-0.8,0.1-1.1,0.4
				C9,16.6,8.8,17,8.7,17.5l-1-0.1c0.1-0.7,0.4-1.3,0.8-1.7c0.4-0.4,1-0.6,1.8-0.6c0.8,0,1.4,0.2,1.9,0.6c0.5,0.4,0.7,0.9,0.7,1.5
				c0,0.4-0.1,0.7-0.2,1c-0.2,0.3-0.5,0.7-1,1.1c-0.3,0.3-0.5,0.5-0.6,0.6c-0.1,0.1-0.2,0.3-0.2,0.5c0,0.2-0.1,0.5-0.1,0.9H9.8z"/>
		</g>
		<ellipse class="st15" cx="10.3" cy="23" rx="0.6" ry="0.6"/>
		<path class="st15" d="M10.7,21.3c0,0.3-0.2,0.5-0.5,0.5c-0.3,0-0.5-0.2-0.5-0.5"/>
		<path class="st15" d="M8.7,17.4c0,0.3-0.2,0.5-0.5,0.5c-0.3,0-0.5-0.2-0.5-0.5"/>
	</g>
</g>
</svg>
