<?xml version="1.0" encoding="utf-8"?>
<!-- Generator: Adobe Illustrator 21.0.2, SVG Export Plug-In . SVG Version: 6.00 Build 0)  -->
<svg version="1.1" id="Capa_1" xmlns="http://www.w3.org/2000/svg" xmlns:xlink="http://www.w3.org/1999/xlink" x="0px" y="0px"
	 viewBox="0 0 40 40" style="enable-background:new 0 0 40 40;" xml:space="preserve">
<style type="text/css">
	.st0{display:none;fill:none;stroke:#0F6081;stroke-linecap:round;stroke-miterlimit:10;}
	.st1{display:none;}
	.st2{display:inline;}
	.st3{fill:none;stroke:#0F6081;stroke-linecap:round;stroke-miterlimit:10;}
	.st4{display:inline;fill:none;stroke:#0F6081;stroke-linecap:round;stroke-miterlimit:10;}
	.st5{fill:none;stroke:#E75428;stroke-width:2;stroke-miterlimit:10;}
	.st6{fill:#E75428;}
</style>
<g>
	<circle class="st0" cx="66.5" cy="-23.3" r="6.1"/>
	<path class="st0" d="M70.3-24.8"/>
	<g class="st1">
		<g class="st2">
			<line class="st3" x1="68.2" y1="-26.6" x2="69.7" y2="-24.8"/>
			<line class="st3" x1="67.9" y1="-23.1" x2="69.8" y2="-24.7"/>
		</g>
		<path class="st4" d="M69.3-24.8c0,0-5.8-1.6-5.5,4.4"/>
	</g>
</g>
<circle class="st5" cx="20" cy="20" r="18.5"/>
<g>
	<path class="st6" d="M27,12.6c1.1,0,1.6,0.7,1.6,1.4c0,0.2-0.3,0.4-0.6,0.4c0,0,0,0-0.3,0c-5.4,0-10.4,0-15.7,0
		c-0.6,0-0.8-0.2-0.8-0.7c0-0.7,0.8-1.2,1.6-1.2c1.3,0,2.7,0,3.7,0H17c0-0.2,0-0.4,0-0.7c0-0.7,0.6-1.1,1.3-1.1c0.8,0,1.8,0,2.7,0
		c0.9,0,1.3,0.4,1.3,1.1c0,0.2,0,0.4,0,0.7h0.3C24.6,12.6,26,12.6,27,12.6z M22,12.6c0-0.2,0-0.4,0-0.7c0-0.2-0.3-0.2-0.6-0.2
		c-0.8,0-1.6,0-2.7,0c-0.3,0-0.3,0-0.6,0.2c0,0.2,0,0.4,0,0.7C19.6,12.6,20.9,12.6,22,12.6z"/>
	<path class="st6" d="M27.9,15c0,0-0.1,0-0.9,0c-4.2,0-8.5,0-12.7,0c-0.6,0-1.1,0-1.6,0s-0.8,0.3-0.8,0.8c0,0.6,0.3,0.8,0.8,0.8
		c0.3,0,0.3,0,0.3,0c0.3,1.3,0.3,2.7,0.6,3.9c0.3,2.7,0.8,5.3,1.1,8c0.3,0.6,0.6,0.8,1.1,0.8c2.9,0,6.1,0,9,0l0.3,0
		c0.5-0.1,0.8-0.1,0.9-0.9c0.1-0.6,0.1-1.1,0.2-1.7c0.3-1.7,0.4-2.8,0.6-4.2c0.2-1.8,0.3-2.9,0.6-4.5c0.1-0.7,0.1-0.6,0.2-1.3
		c0.3,0,0.4,0,0.4,0c0.9,0,0.9-0.7,0.8-1C28.5,15.2,28.2,15,27.9,15z M17.6,27L17.6,27c-0.1,0.1-0.2,0.1-0.3,0.1l0,0h-0.1
		c-0.1,0-0.1-0.1-0.2-0.1c-0.2-0.1-0.3-0.2-0.3-0.4l-0.5-6.8c0-0.3,0.2-0.6,0.5-0.6s0.6,0.2,0.6,0.5l0.5,6.8
		C17.8,26.7,17.7,26.9,17.6,27z M20.9,26.9c0,0.3-0.3,0.6-0.6,0.6l0,0l0,0l0,0c-0.3,0-0.6-0.3-0.6-0.6v-6.8c0-0.3,0.3-0.6,0.6-0.6
		c0.3,0,0.6,0.3,0.6,0.6V26.9z M24.2,26.8c0,0.3-0.3,0.6-0.6,0.5c-0.3,0-0.6-0.3-0.5-0.6l0.5-6.8c0-0.3,0.3-0.6,0.6-0.5
		c0.3,0,0.6,0.3,0.5,0.6L24.2,26.8z"/>
</g>
</svg>
