<?xml version="1.0" encoding="utf-8"?>
<!-- Generator: Adobe Illustrator 21.0.2, SVG Export Plug-In . SVG Version: 6.00 Build 0)  -->
<svg version="1.1" id="Capa_1" xmlns="http://www.w3.org/2000/svg" xmlns:xlink="http://www.w3.org/1999/xlink" x="0px" y="0px"
	 viewBox="0 0 40 40" style="enable-background:new 0 0 40 40;" xml:space="preserve">
<style type="text/css">
	.st0{display:none;}
	.st1{display:inline;fill:none;stroke:#0F6081;stroke-linecap:round;stroke-miterlimit:10;}
	.st2{display:inline;}
	.st3{fill:none;stroke:#0F6081;stroke-linecap:round;stroke-miterlimit:10;}
	.st4{fill:none;stroke:#0F6081;stroke-width:2;stroke-miterlimit:10;}
	.st5{fill:#0F6081;}
	.st6{display:none;fill:none;stroke:#E75428;stroke-miterlimit:10;}
	.st7{fill:#E75428;}
</style>
<g class="st0">
	<circle class="st1" cx="66.5" cy="-23.3" r="6.1"/>
	<path class="st1" d="M70.3-24.8"/>
	<g class="st2">
		<g>
			<line class="st3" x1="68.2" y1="-26.6" x2="69.7" y2="-24.8"/>
			<line class="st3" x1="67.9" y1="-23.1" x2="69.8" y2="-24.7"/>
		</g>
		<path class="st3" d="M69.3-24.8c0,0-5.8-1.6-5.5,4.4"/>
	</g>
</g>
<g>
	<ellipse class="st4" cx="20" cy="20" rx="18.6" ry="18.6"/>
	<g>
		<g id="XMLID_78_">
			<path class="st5" d="M28.3,10.4c0.6,0.3,1,1.1,0.4,1.9c-0.4,0.6-0.7,1.1-1.3,1.8c-1.9-1.2-3.4-1.9-5.3-3.1c0.4-0.6,0.6-1.2,1.2-2
				c0.3-0.3,0.4-0.6,1.1-0.6c0.3,0,0.3,0.1,0.8,0.3C26.4,9.2,27.4,9.8,28.3,10.4z"/>
			<path class="st5" d="M26.7,15.1c-2.7,4.3-5.5,8.8-8.2,13.1c-1.8-1.2-3.4-1.9-5.2-3c2.7-4.3,5.5-8.8,8.2-13.1
				C23,13,24.8,14.1,26.7,15.1z"/>
			<path class="st5" d="M12.8,26.3c1.6,0.9,3.4,2,5,2.9c-1.8,1.1-3.3,2-5.1,2.9C12.8,30.3,12.8,28.2,12.8,26.3z"/>
		</g>
	</g>
</g>
<g>
	<circle class="st6" cx="46.2" cy="-23.3" r="6.1"/>
	<path class="st7" d="M48.7-26c0.4,0,0.6,0.3,0.6,0.7c0,0.1-0.1,0.2-0.2,0.2c0,0,0,0-0.1,0c-2,0-3.9,0-5.9,0c-0.2,0-0.3-0.1-0.3-0.3
		c0-0.3,0.3-0.6,0.6-0.6c0.5,0,1,0,1.4,0h0.1c0-0.1,0-0.2,0-0.3c0-0.3,0.2-0.5,0.5-0.5s0.7,0,1,0s0.5,0.2,0.5,0.5c0,0.1,0,0.2,0,0.3
		H47C47.8-26,48.3-26,48.7-26z M46.8-26c0-0.1,0-0.2,0-0.3c0-0.1-0.1-0.1-0.2-0.1c-0.3,0-0.6,0-1,0c-0.1,0-0.1,0-0.2,0.1
		c0,0.1,0,0.2,0,0.3C45.9-26,46.4-26,46.8-26z"/>
</g>
<path class="st7" d="M48.9-24.9c0,0-0.1,0-0.3,0.1c-1.6,0-3.2,0-4.8,0c-0.2,0-0.4,0-0.6,0s-0.3,0.1-0.3,0.3c0,0.2,0.1,0.3,0.3,0.3
	c0.1,0,0.1,0,0.1,0c0.1,0.5,0.1,1,0.2,1.5c0.1,1,0.3,2,0.4,3c0.1,0.2,0.2,0.3,0.4,0.3c1.1,0,2.3,0,3.4,0h0.1
	c0.2-0.1,0.3-0.1,0.3-0.3c0-0.2,0.1-0.5,0.1-0.7c0.1-0.6,0.1-1.1,0.2-1.6c0.1-0.6,0.1-1.1,0.2-1.7c0-0.2,0.1-0.4,0.1-0.6
	c0.1,0,0.1,0,0.1,0c0.2,0,0.3-0.1,0.3-0.3C49.1-24.7,49-24.9,48.9-24.9z M45.1-20.3C45.1-20.3,45.1-20.3,45.1-20.3
	c0,0-0.1,0-0.1,0.1c0,0,0,0,0,0c0,0,0,0,0,0c0,0-0.1,0-0.1,0c-0.1,0-0.1-0.1-0.1-0.2L44.6-23c0-0.1,0.1-0.2,0.2-0.2S45-23.1,45-23
	l0.2,2.6C45.2-20.4,45.1-20.3,45.1-20.3z M46.3-20.3c0,0.1-0.1,0.2-0.2,0.2c0,0,0,0,0,0c0,0,0,0,0,0c0,0,0,0,0,0
	c-0.1,0-0.2-0.1-0.2-0.2v-2.6c0-0.1,0.1-0.2,0.2-0.2c0.1,0,0.2,0.1,0.2,0.2V-20.3z M47.6-20.4c0,0.1-0.1,0.2-0.2,0.2
	s-0.2-0.1-0.2-0.2l0.2-2.6c0-0.1,0.1-0.2,0.2-0.2c0.1,0,0.2,0.1,0.2,0.2L47.6-20.4z"/>
</svg>
